<svg xmlns="http://www.w3.org/2000/svg" width="24" height="24" viewBox="0 0 24 24">
  <style>
    .bg{fill:#0a0a0a}
    @media(prefers-color-scheme:dark){.bg{fill:#fafafa}}
  </style>
  <mask id="m">
    <rect width="24" height="24" rx="4.5" fill="white"/>
    <g stroke="black" stroke-width="2.5" fill="none" stroke-linecap="round" stroke-linejoin="round">
      <path d="M12 20h-1a2 2 0 0 1-2-2 2 2 0 0 1-2 2H6"/>
      <path d="M13 8h7a2 2 0 0 1 2 2v4a2 2 0 0 1-2 2h-7"/>
      <path d="M5 16H4a2 2 0 0 1-2-2v-4a2 2 0 0 1 2-2h1"/>
      <path d="M6 4h1a2 2 0 0 1 2 2 2 2 0 0 1 2-2h1"/>
      <path d="M9 6v12"/>
    </g>
  </mask>
  <rect width="24" height="24" rx="4.5" class="bg" mask="url(#m)"/>
</svg>
